<?xml version="1.0" standalone="no"?>
<!DOCTYPE svg PUBLIC "-//W3C//DTD SVG 20010904//EN"
        "http://www.w3.org/TR/2001/REC-SVG-20010904/DTD/svg10.dtd">
<svg version="1.0" xmlns="http://www.w3.org/2000/svg"
     width="512.000000pt" height="512.000000pt" viewBox="0 0 512.000000 512.000000"
     preserveAspectRatio="xMidYMid meet">

    <g transform="translate(0.000000,512.000000) scale(0.100000,-0.100000)"
       fill="#838689" stroke="none">
        <path d="M651 5105 c-150 -33 -254 -83 -363 -175 -117 -97 -209 -237 -255
-385 l-28 -90 0 -1895 0 -1895 28 -90 c80 -259 283 -462 542 -542 l90 -28
1895 0 1895 0 90 28 c331 103 565 404 569 733 1 93 -1 103 -26 141 -41 63 -90
88 -169 88 -54 0 -72 -5 -106 -27 -59 -39 -82 -82 -94 -178 -23 -190 -114
-312 -273 -367 -48 -17 -146 -18 -1886 -18 -1740 0 -1838 1 -1886 18 -113 39
-201 123 -246 234 l-23 58 0 1845 0 1845 23 58 c45 111 133 195 246 234 48 17
146 18 1886 18 1740 0 1838 -1 1886 -18 113 -39 201 -123 246 -234 l23 -58 5
-1336 5 -1335 27 -41 c41 -62 90 -88 168 -88 78 0 127 26 168 88 l27 41 0
1360 0 1361 -28 90 c-80 259 -283 462 -542 542 l-90 28 -1870 2 c-1567 1
-1880 -1 -1934 -12z"/>
        <path d="M3983 3588 c-17 -6 -45 -22 -61 -37 -17 -14 -378 -449 -802 -966
-425 -517 -791 -959 -813 -982 -68 -71 -165 -91 -242 -51 -13 7 -200 171 -415
363 -215 193 -407 358 -425 368 -111 60 -251 3 -285 -116 -14 -52 -10 -99 14
-149 10 -22 143 -147 358 -338 558 -499 546 -490 705 -531 193 -49 402 6 546
143 71 69 1641 1973 1664 2019 79 159 -73 332 -244 277z"/>
    </g>
</svg>
