<svg version="1.0" xmlns="http://www.w3.org/2000/svg" width="682.667" height="682.667" viewBox="0 0 512 512">
    <g fill="#838689">
        <path d="M65.1 1.5C50.1 4.8 39.7 9.8 28.8 19 17.1 28.7 7.9 42.7 3.3 57.5l-2.8 9v379l2.8 9c8 25.9 28.3 46.2 54.2 54.2l9 2.8h379l9-2.8c33.1-10.3 56.5-40.4 56.9-73.3.1-9.3-.1-10.3-2.6-14.1-4.1-6.3-9-8.8-16.9-8.8-5.4 0-7.2.5-10.6 2.7-5.9 3.9-8.2 8.2-9.4 17.8-2.3 19-11.4 31.2-27.3 36.7-4.8 1.7-14.6 1.8-188.6 1.8s-183.8-.1-188.6-1.8c-11.3-3.9-20.1-12.3-24.6-23.4l-2.3-5.8v-369l2.3-5.8c4.5-11.1 13.3-19.5 24.6-23.4 4.8-1.7 14.6-1.8 188.6-1.8s183.8.1 188.6 1.8c11.3 3.9 20.1 12.3 24.6 23.4l2.3 5.8.5 133.6.5 133.5 2.7 4.1c4.1 6.2 9 8.8 16.8 8.8 7.8 0 12.7-2.6 16.8-8.8l2.7-4.1V66.5l-2.8-9c-8-25.9-28.3-46.2-54.2-54.2l-9-2.8-187-.2C101.8.2 70.5.4 65.1 1.5z"/>
        <path d="M398.3 153.2c-1.7.6-4.5 2.2-6.1 3.7-1.7 1.4-37.8 44.9-80.2 96.6-42.5 51.7-79.1 95.9-81.3 98.2-6.8 7.1-16.5 9.1-24.2 5.1-1.3-.7-20-17.1-41.5-36.3-21.5-19.3-40.7-35.8-42.5-36.8-11.1-6-25.1-.3-28.5 11.6-1.4 5.2-1 9.9 1.4 14.9 1 2.2 14.3 14.7 35.8 33.8 55.8 49.9 54.6 49 70.5 53.1 19.3 4.9 40.2-.6 54.6-14.3 7.1-6.9 164.1-197.3 166.4-201.9 7.9-15.9-7.3-33.2-24.4-27.7z"/>
    </g>
</svg>
