<svg xmlns="http://www.w3.org/2000/svg" viewBox="0 0 512.001 512.001" style="enable-background:new 0 0 512.001 512.001"
     xml:space="preserve"><path d="M492.001 330.5c11.046 0 20-8.954 20-20v-167c0-16.027-6.241-31.095-17.574-42.427-11.332-11.33-26.396-17.569-42.416-17.569H452L233.962 83.5c-8.183-35.472-40.024-62.005-77.941-62.013l-76.02-.024c-44.112 0-80 35.888-80 80v309.074c0 44.112 35.888 80 80 80h352c44.112 0 80-35.888 80-80 0-11.046-8.954-20-20-20s-20 8.954-20 20c0 22.056-17.944 40-40 40h-352c-22.056 0-40-17.944-40-39.999V101.463c0-.049 0-.043.001-.026.014-22.044 17.952-39.974 39.992-39.974l76.016.024c22.051.005 39.991 17.948 39.991 40v2.013c0 11.046 8.954 20 20 20l236.003.004a19.862 19.862 0 0 1 14.14 5.855 19.865 19.865 0 0 1 5.857 14.141v167c0 11.046 8.954 20 20 20z" fill="#838689"/></svg>
