<svg xmlns="http://www.w3.org/2000/svg" viewBox="0 0 512 512" style="enable-background:new 0 0 512 512"
     xml:space="preserve"><path d="M309.5 358c11.046 0 20-8.954 20-20v-75c0-40.804-33.196-74-74-74s-74 33.196-74 74v175c0 40.804 33.196 74 74 74s74-33.196 74-74c0-11.046-8.954-20-20-20s-20 8.954-20 20c0 18.748-15.252 34-34 34s-34-15.252-34-34V263c0-18.748 15.252-34 34-34s34 15.252 34 34v75c0 11.046 8.954 20 20 20zM256.5 0c-40.804 0-74 33.196-74 74s33.196 74 74 74 74-33.196 74-74-33.196-74-74-74zm0 108c-18.748 0-34-15.252-34-34s15.252-34 34-34 34 15.252 34 34-15.252 34-34 34z" fill="#838689"/></svg>
