<svg xmlns="http://www.w3.org/2000/svg" viewBox="0 0 512 512" style="enable-background:new 0 0 512 512"
     xml:space="preserve"><path d="M492 118H156c-11.046 0-20 8.954-20 20s8.954 20 20 20h336c11.046 0 20-8.954 20-20s-8.954-20-20-20zM492 0H20C8.954 0 0 8.954 0 20s8.954 20 20 20h472c11.046 0 20-8.954 20-20s-8.954-20-20-20zM492 472H20c-11.046 0-20 8.954-20 20s8.954 20 20 20h472c11.046 0 20-8.954 20-20s-8.954-20-20-20zM492 354H156c-11.046 0-20 8.954-20 20s8.954 20 20 20h336c11.046 0 20-8.954 20-20s-8.954-20-20-20zM492 236H20c-11.046 0-20 8.954-20 20s8.954 20 20 20h472c11.046 0 20-8.954 20-20s-8.954-20-20-20z" fill="#838689"/></svg>
