<svg xmlns="http://www.w3.org/2000/svg" viewBox="0 0 512 512" style="enable-background:new 0 0 512 512"
     xml:space="preserve"><path d="M396.456 213.569 200.434 17.547c-23.397-23.397-61.466-23.397-84.862 0-11.334 11.334-17.576 26.403-17.576 42.431v392.044c0 16.028 6.242 31.096 17.576 42.431C127.27 506.15 142.636 512 158.003 512c15.366 0 30.732-5.85 42.431-17.547 7.812-7.811 7.811-20.475 0-28.287-7.811-7.812-20.475-7.812-28.287 0-7.799 7.799-20.488 7.799-28.287 0a19.876 19.876 0 0 1-5.859-14.144V59.978a19.874 19.874 0 0 1 5.859-14.144c7.799-7.799 20.488-7.799 28.287 0l196.022 196.022c7.799 7.799 7.799 20.488 0 28.287l-126.73 126.73c-7.812 7.811-7.811 20.475 0 28.287 7.811 7.812 20.475 7.812 28.287 0l126.731-126.729c23.396-23.397 23.396-61.465-.001-84.862z" fill="#838689"/></svg>
