<svg version="1.0" xmlns="http://www.w3.org/2000/svg" width="682.667" height="682.667" viewBox="0 0 512 512">
    <g fill="#838689">
        <path d="M237 .6c-1.9.2-7.8.9-13 1.5-79.1 9-152.2 58.6-192.4 130.5C17 158.8 6.4 191.4 1.9 224c-1.8 12.5-1.8 51.5 0 64C12.4 364.2 53 428.9 116.5 470.6c77.6 51 179.3 55 261.5 10.4 12.5-6.8 15.4-9.1 17.9-14.3 4.3-8.9 1.5-19.3-6.8-25.2-3.6-2.5-5.2-3-10.4-3-3.8 0-7.3.6-9.2 1.6-16.8 9.1-23.6 12.4-33 16.2-32.3 13-67 18-101.1 14.6-85.4-8.4-157.8-66.4-184.3-147.5-14.8-45.2-14.8-89.6 0-134.8C72.5 123.3 123.4 72.4 188.9 51c44.9-14.7 89.4-14.7 134.5.1 48.8 16 89.3 48.1 117.1 92.9 16.2 26.2 27.3 59.5 30.5 91.9 4.5 46-7 94-32.6 135.1-5.6 9-5.9 9.8-5.9 16 0 7.8 2.6 12.7 8.8 16.8 5.6 3.7 15.3 3.9 21 .3 6-3.7 18.2-23.5 27.6-44.9 46.9-106 16.9-229.7-73.4-302.5C380.1 27.4 339.7 9.8 292 2.5 282 1 244.8-.3 237 .6z"/>
        <path d="M249.2 147.1c-4.5 1.3-10.8 8-12.1 12.6-.7 2.3-1.1 17.6-1.1 40v36.2l-38.3.3-38.3.3-4.1 2.7c-6.3 4.1-8.8 9-8.8 16.9 0 5.4.5 7.2 2.7 10.6 1.5 2.2 4.4 5.1 6.5 6.4l3.8 2.4 38.2.3 38.2.3.3 38.2.3 38.2 2.4 3.8c1.3 2.1 4.2 5 6.4 6.5 3.4 2.3 5.2 2.7 10.7 2.7 5.5 0 7.3-.4 10.7-2.7 2.2-1.5 5.1-4.4 6.4-6.5l2.4-3.8.3-38.2.3-38.2 38.3-.3 38.2-.3 4.1-2.7c6.3-4.1 8.8-9 8.8-16.9 0-5.4-.5-7.2-2.7-10.6-1.5-2.2-4.4-5.1-6.5-6.4l-3.8-2.4-38.2-.3-38.2-.3-.3-38.2-.3-38.2-2.4-3.8c-4.7-7.6-15.1-11.3-23.9-8.6z"/>
    </g>
</svg>
