<svg xmlns="http://www.w3.org/2000/svg" viewBox="0 0 512 512" style="enable-background:new 0 0 512 512"
     xml:space="preserve"><path d="M45.833 270.143c-7.797-7.798-7.797-20.487.018-28.302L221.145 66.114c7.8-7.82 7.785-20.484-.035-28.285-7.821-7.8-20.485-7.785-28.286.035L17.549 213.572c-23.395 23.395-23.395 61.462-.018 84.839l175.293 175.725a19.938 19.938 0 0 0 14.161 5.875c5.11 0 10.222-1.947 14.125-5.841 7.82-7.801 7.836-20.465.035-28.285L45.833 270.143z" fill="#838689"/>
    <path d="M491.999 235.999H128.98c-11.047 0-20.001 8.954-20.001 20.001s8.954 20.001 20.001 20.001h363.018c11.047 0 20.001-8.954 20.001-20.001s-8.954-20.001-20-20.001z"
          fill="#838689"/></svg>
