<?xml version="1.0" standalone="no"?>
<!DOCTYPE svg PUBLIC "-//W3C//DTD SVG 20010904//EN"
        "http://www.w3.org/TR/2001/REC-SVG-20010904/DTD/svg10.dtd">
<svg version="1.0" xmlns="http://www.w3.org/2000/svg"
     width="512.000000pt" height="512.000000pt" viewBox="0 0 512.000000 512.000000"
     preserveAspectRatio="xMidYMid meet">

    <g transform="translate(0.000000,512.000000) scale(0.100000,-0.100000)"
       fill="#838689" stroke="none">
        <path d="M2078 5111 c-47 -16 -99 -63 -386 -360 -248 -256 -284 -297 -316
-362 -40 -82 -66 -186 -66 -269 0 -124 53 -278 128 -369 62 -77 555 -581 589
-602 17 -11 54 -22 82 -26 103 -12 204 69 218 177 11 80 -15 119 -206 315 -97
99 -203 209 -236 243 l-60 63 465 -4 c487 -5 527 -8 717 -56 598 -153 1101
-656 1254 -1254 108 -425 63 -845 -133 -1244 -57 -116 -60 -125 -56 -182 8
-111 87 -183 200 -183 104 1 166 67 258 277 357 814 200 1730 -405 2373 -292
311 -706 541 -1125 625 -194 40 -312 47 -759 47 l-416 0 231 233 c127 127 242
248 255 267 35 51 34 151 -1 203 -50 75 -153 113 -232 88z"/>
        <path d="M532 2349 c-45 -13 -108 -80 -121 -126 -34 -121 17 -494 100 -748 51
-153 157 -370 247 -505 519 -778 1458 -1134 2362 -894 214 56 489 178 534 236
39 51 53 118 37 175 -25 96 -92 148 -191 148 -47 0 -74 -9 -185 -62 -328 -155
-684 -206 -1035 -149 -619 102 -1141 528 -1364 1114 -66 173 -90 289 -110 529
-16 182 -27 214 -96 259 -43 29 -125 39 -178 23z"/>
    </g>
</svg>
