<svg version="1.0" xmlns="http://www.w3.org/2000/svg" width="682.667" height="682.667" viewBox="0 0 512 512">
    <g fill="#838689">
        <path d="M207.8.9c-4.7 1.6-9.9 6.3-38.6 36-24.8 25.6-28.4 29.7-31.6 36.2-4 8.2-6.6 18.6-6.6 26.9 0 12.4 5.3 27.8 12.8 36.9 6.2 7.7 55.5 58.1 58.9 60.2 1.7 1.1 5.4 2.2 8.2 2.6 10.3 1.2 20.4-6.9 21.8-17.7 1.1-8-1.5-11.9-20.6-31.5-9.7-9.9-20.3-20.9-23.6-24.3l-6-6.3 46.5.4c48.7.5 52.7.8 71.7 5.6 59.8 15.3 110.1 65.6 125.4 125.4 10.8 42.5 6.3 84.5-13.3 124.4-5.7 11.6-6 12.5-5.6 18.2.8 11.1 8.7 18.3 20 18.3 10.4-.1 16.6-6.7 25.8-27.7 35.7-81.4 20-173-40.5-237.3-29.2-31.1-70.6-54.1-112.5-62.5-19.4-4-31.2-4.7-75.9-4.7h-41.6l23.1-23.3C218.3 44 229.8 31.9 231.1 30c3.5-5.1 3.4-15.1-.1-20.3-5-7.5-15.3-11.3-23.2-8.8zM53.2 277.1c-4.5 1.3-10.8 8-12.1 12.6-3.4 12.1 1.7 49.4 10 74.8 5.1 15.3 15.7 37 24.7 50.5 51.9 77.8 145.8 113.4 236.2 89.4 21.4-5.6 48.9-17.8 53.4-23.6 3.9-5.1 5.3-11.8 3.7-17.5-2.5-9.6-9.2-14.8-19.1-14.8-4.7 0-7.4.9-18.5 6.2-32.8 15.5-68.4 20.6-103.5 14.9-61.9-10.2-114.1-52.8-136.4-111.4-6.6-17.3-9-28.9-11-52.9-1.6-18.2-2.7-21.4-9.6-25.9-4.3-2.9-12.5-3.9-17.8-2.3z"/>
    </g>
</svg>
