<svg version="1.0" xmlns="http://www.w3.org/2000/svg" width="682.667" height="682.667" viewBox="0 0 512 512">
    <g fill="#838689">
        <path d="M208 1.6c-22.1 4.7-40.8 23.6-45.5 45.9-.9 4.2-1.5 12.6-1.5 21.2v14.2l-63.8.3-63.8.3-4.1 2.7c-6.3 4.1-8.8 9-8.8 16.9 0 5.4.5 7.2 2.7 10.6 1.5 2.2 4.4 5.1 6.5 6.4 3.4 2.2 5.2 2.4 17.6 2.7 12.6.4 13.7.5 13.7 2.3 0 5.7 24.2 314.5 25 319.9 4.8 29.8 25.2 53.1 55.3 63.4l9.2 3.1h210l7.8-2.3c20.1-5.8 37.6-19 47.6-36 9.1-15.4 13.1-35.7 8.7-44.5-3.9-7.8-13.7-12.2-22.3-9.8-9.4 2.5-13.1 7.1-15.8 20.1-.8 4-2.7 9.5-4.2 12.2-3.7 6.8-12.9 15.1-20 18l-5.8 2.3h-201l-6.7-3.2c-3.7-1.7-9-5.2-11.6-7.8-5.1-4.7-10.5-14.2-11.6-20.5-.5-2.8-24.6-312.7-24.6-316.1 0-.5 64.6-.9 155-.9 85.3 0 155 .3 155 .7 0 .5-3.9 50.9-8.6 112.2-9.5 124-9.4 117.1-2.4 124.1 3.5 3.5 9.4 6 14.1 6 8.3 0 16.6-6.3 18.7-14.1 1-3.4 18.2-218.8 18.2-227 0-1.5 1.5-1.7 13.8-2.1 13.1-.3 14.1-.5 17.9-3 6.3-4.1 8.8-9 8.8-16.9 0-5.4-.5-7.2-2.7-10.6-1.5-2.2-4.4-5.1-6.5-6.4l-3.8-2.4-63.7-.3-63.8-.3V68.7c0-8.6-.6-17-1.5-21.2-4.7-22.5-23.5-41.3-46-46-9.8-2.1-85.9-2-95.5.1zM301.3 43c2.1 1.4 5 4.3 6.5 6.4 2.6 3.8 2.7 4.5 3 18.8l.4 14.8H201V70.2c0-7 .5-14.3 1-16.4 1.3-4.4 8.1-11.5 12.4-12.7 1.7-.6 20.8-.9 43.2-.8l40 .2 3.7 2.5z"/>
        <path d="M159 164.3c-4.9 1.6-10.4 7.5-11.9 12.8-1 3.7-.4 23.9 3.9 121.4l5.1 117 2.5 5.3c7.1 14.6 27.7 14.5 34.9-.2l2.7-5.5-5.2-117.3c-3.1-71.7-5.6-118.8-6.3-121.3-3-10-14.8-15.7-25.7-12.2zM249.2 164.1c-4.5 1.3-10.8 8-12.1 12.6-.7 2.6-1.1 41.7-1.1 121.4v117.7l2.8 5.3c2.2 4.3 3.8 5.9 8.1 8.1 6.8 3.6 11.4 3.6 18.2 0 4.3-2.2 5.9-3.8 8.1-8.1l2.8-5.4-.2-119.6-.3-119.6-2.4-3.8c-4.7-7.6-15.1-11.3-23.9-8.6zM339 164.3c-4.6 1.5-10.3 7.4-11.7 12.2-.7 2.5-3.2 49.6-6.3 121.3l-5.2 117.3 2.7 5.5c7.2 14.7 27.8 14.8 34.9.2l2.5-5.3 5.1-117c5.6-129.5 5.7-122.8-1-129.5-5.4-5.4-13.2-7.2-21-4.7z"/>
    </g>
</svg>
