<?xml version="1.0" standalone="no"?>
<!DOCTYPE svg PUBLIC "-//W3C//DTD SVG 20010904//EN"
        "http://www.w3.org/TR/2001/REC-SVG-20010904/DTD/svg10.dtd">
<svg version="1.0" xmlns="http://www.w3.org/2000/svg"
     width="512.000000pt" height="512.000000pt" viewBox="0 0 512.000000 512.000000"
     preserveAspectRatio="xMidYMid meet">

    <g transform="translate(0.000000,512.000000) scale(0.100000,-0.100000)"
       fill="#838689" stroke="none">
        <path d="M2080 5104 c-221 -47 -408 -236 -455 -459 -9 -42 -15 -126 -15 -212
l0 -142 -638 -3 -638 -3 -41 -27 c-63 -41 -88 -90 -88 -169 0 -54 5 -72 27
-106 15 -22 44 -51 65 -64 34 -22 52 -24 176 -27 126 -4 137 -5 137 -23 0 -57
242 -3145 250 -3199 48 -298 252 -531 553 -634 l92 -31 1050 0 1050 0 78 23
c201 58 376 190 476 360 91 154 131 357 87 445 -39 78 -137 122 -223 98 -94
-25 -131 -71 -158 -201 -8 -40 -27 -95 -42 -122 -37 -68 -129 -151 -200 -180
l-58 -23 -1005 0 -1005 0 -67 32 c-37 17 -90 52 -116 78 -51 47 -105 142 -116
205 -5 28 -246 3127 -246 3161 0 5 646 9 1550 9 853 0 1550 -3 1550 -7 0 -5
-39 -509 -86 -1122 -95 -1240 -94 -1171 -24 -1241 35 -35 94 -60 141 -60 83 0
166 63 187 141 10 34 182 2188 182 2270 0 15 15 17 138 21 131 3 141 5 179 30
63 41 88 90 88 169 0 54 -5 72 -27 106 -15 22 -44 51 -65 64 l-38 24 -637 3
-638 3 0 142 c0 86 -6 170 -15 212 -47 225 -235 413 -460 460 -98 21 -859 20
-955 -1z m933 -414 c21 -14 50 -43 65 -64 26 -38 27 -45 30 -188 l4 -148 -551
0 -551 0 0 128 c0 70 5 143 10 164 13 44 81 115 124 127 17 6 208 9 432 8
l400 -2 37 -25z"/>
        <path d="M1590 3477 c-49 -16 -104 -75 -119 -128 -10 -37 -4 -239 39 -1214
l51 -1170 25 -53 c71 -146 277 -145 349 2 l27 55 -52 1173 c-31 717 -56 1188
-63 1213 -30 100 -148 157 -257 122z"/>
        <path d="M2492 3479 c-45 -13 -108 -80 -121 -126 -7 -26 -11 -417 -11 -1214
l0 -1177 28 -53 c22 -43 38 -59 81 -81 68 -36 114 -36 182 0 43 22 59 38 81
81 l28 54 -2 1196 -3 1196 -24 38 c-47 76 -151 113 -239 86z"/>
        <path d="M3390 3477 c-46 -15 -103 -74 -117 -122 -7 -25 -32 -496 -63 -1213
l-52 -1173 27 -55 c72 -147 278 -148 349 -2 l25 53 51 1170 c56 1295 57 1228
-10 1295 -54 54 -132 72 -210 47z"/>
    </g>
</svg>
